# xmcd
#
# Track frame offsets:
# 150
# 15660
# 32945
# 45438
# 60560
# 81411
# 96300
# 110276
# 126084
# 138687
# 160263
# 177801
#
# Disc length: 2508 seconds
#
# Revision: 0
# Processed by: cddbd v1.5PL3 Copyright (c) Steve Scherf et al.
# Submitted via: Axialis_AX_CDPlayer 2.6
#
DISCID=9d09ca0c
DTITLE=Captain and Tennille - Greatest Hits
DYEAR=1900
DGENRE=
TTITLE0=Love will keep it together
TTITLE1=Muscrat love
TTITLE2=Circles
TTITLE3=Wedding song
TTITLE4=Come in from the rain
TTITLE5=Lonely night
TTITLE6=Shop around
TTITLE7=I write the songs
TTITLE8=Way I want to touch you
TTITLE9=Disney girls
TTITLE10=Can't stop dancing
TTITLE11=We never really say goodbye
EXTD=
EXTT0=
EXTT1=
EXTT2=
EXTT3=
EXTT4=
EXTT5=
EXTT6=
EXTT7=
EXTT8=
EXTT9=
EXTT10=
EXTT11=
PLAYORDER=
